<svg width="88" height="10" viewBox="0 0 88 10" fill="none" xmlns="http://www.w3.org/2000/svg">
<path d="M1.49902 8.08301C1.89453 8.08301 2.12891 7.84375 2.12891 7.42871V5.12402H4.61426C4.94629 5.12402 5.16602 4.92871 5.16602 4.61133C5.16602 4.29395 4.94629 4.09863 4.61426 4.09863H2.12891V2.01855H4.86816C5.20996 2.01855 5.44434 1.81348 5.44434 1.48633C5.44434 1.15918 5.21484 0.954102 4.86816 0.954102H1.49902C1.1084 0.954102 0.869141 1.19824 0.869141 1.6084V7.42871C0.869141 7.84375 1.1084 8.08301 1.49902 8.08301ZM8.78125 8.10254C10.2998 8.10254 11.2861 7.0918 11.2861 5.41211C11.2861 3.7373 10.29 2.7168 8.78125 2.7168C7.27246 2.7168 6.27637 3.74219 6.27637 5.41211C6.27637 7.0918 7.2627 8.10254 8.78125 8.10254ZM8.78125 7.14062C8.00977 7.14062 7.51172 6.51562 7.51172 5.41211C7.51172 4.31348 8.01465 3.68359 8.78125 3.68359C9.55273 3.68359 10.0508 4.31348 10.0508 5.41211C10.0508 6.51562 9.55273 7.14062 8.78125 7.14062ZM14.8574 8.10254C16.376 8.10254 17.3623 7.0918 17.3623 5.41211C17.3623 3.7373 16.3662 2.7168 14.8574 2.7168C13.3486 2.7168 12.3525 3.74219 12.3525 5.41211C12.3525 7.0918 13.3389 8.10254 14.8574 8.10254ZM14.8574 7.14062C14.0859 7.14062 13.5879 6.51562 13.5879 5.41211C13.5879 4.31348 14.0908 3.68359 14.8574 3.68359C15.6289 3.68359 16.127 4.31348 16.127 5.41211C16.127 6.51562 15.6289 7.14062 14.8574 7.14062ZM20.5771 8.08301C21.3779 8.08301 21.9346 7.67773 22.1836 7.08203H22.208V7.4873C22.208 7.88281 22.4717 8.09766 22.8232 8.09766C23.1748 8.09766 23.4238 7.87793 23.4238 7.4873V1.49609C23.4238 1.08594 23.1699 0.856445 22.8135 0.856445C22.457 0.856445 22.208 1.08594 22.208 1.49609V3.69336H22.1787C21.9053 3.12207 21.3193 2.73633 20.5771 2.73633C19.2734 2.73633 18.4287 3.77148 18.4287 5.40723C18.4287 7.05273 19.2734 8.08301 20.5771 8.08301ZM20.9434 7.08691C20.1572 7.08691 19.6738 6.44238 19.6738 5.41211C19.6738 4.38672 20.1621 3.7373 20.9434 3.7373C21.71 3.7373 22.2129 4.39648 22.2129 5.41211C22.2129 6.4375 21.71 7.08691 20.9434 7.08691ZM28.3936 8.09766C28.7549 8.09766 28.999 7.87305 28.999 7.46289V3.76172H29.6338C29.9023 3.76172 30.0977 3.5957 30.0977 3.29785C30.0977 3.01465 29.9023 2.83887 29.6338 2.83887H28.9795V2.43359C28.9795 1.99902 29.1602 1.80371 29.6045 1.79395C29.7119 1.78906 29.7949 1.7793 29.873 1.75977C30.0537 1.70605 30.1416 1.59375 30.1416 1.4082C30.1416 1.10547 29.8535 0.900391 29.209 0.900391C28.2764 0.905273 27.7832 1.36914 27.7832 2.37988V2.83887H27.4609C27.1875 2.83887 26.9922 3.01465 26.9922 3.29785C26.9922 3.5957 27.1875 3.76172 27.4609 3.76172H27.7832V7.46289C27.7832 7.87305 28.0273 8.09766 28.3936 8.09766ZM33.4199 8.10254C34.9385 8.10254 35.9248 7.0918 35.9248 5.41211C35.9248 3.7373 34.9287 2.7168 33.4199 2.7168C31.9111 2.7168 30.915 3.74219 30.915 5.41211C30.915 7.0918 31.9014 8.10254 33.4199 8.10254ZM33.4199 7.14062C32.6484 7.14062 32.1504 6.51562 32.1504 5.41211C32.1504 4.31348 32.6533 3.68359 33.4199 3.68359C34.1914 3.68359 34.6895 4.31348 34.6895 5.41211C34.6895 6.51562 34.1914 7.14062 33.4199 7.14062ZM37.8115 8.09766C38.1777 8.09766 38.4219 7.8584 38.4219 7.45801V4.96777C38.4219 4.33789 38.6855 3.90332 39.3789 3.89844C39.6182 3.89355 39.7988 3.83984 39.916 3.7373C40.0381 3.63965 40.0967 3.49805 40.0967 3.30762C40.0967 3.10742 40.0381 2.96094 39.9258 2.86816C39.833 2.78516 39.6865 2.73633 39.4961 2.73633C38.9785 2.73633 38.5293 3.12695 38.3877 3.73242H38.3633V3.33691C38.3633 2.95605 38.124 2.72168 37.7871 2.72168C37.4404 2.72168 37.2061 2.95605 37.2061 3.33691V7.45801C37.2061 7.8584 37.4453 8.09766 37.8115 8.09766ZM44.3975 8H47.8301C48.1768 8 48.4062 7.79492 48.4062 7.46777C48.4062 7.14062 48.1768 6.93555 47.8301 6.93555H45.0273V4.92383H47.6836C48.0107 4.92383 48.2256 4.72852 48.2256 4.4209C48.2256 4.11328 48.0059 3.92285 47.6836 3.92285H45.0273V2.01855H47.8301C48.1768 2.01855 48.4062 1.81348 48.4062 1.48633C48.4062 1.15918 48.1768 0.954102 47.8301 0.954102H44.3975C44.0068 0.954102 43.7676 1.19824 43.7676 1.6084V7.3457C43.7676 7.75586 44.0068 8 44.3975 8ZM51.8701 8.09766C52.2998 8.09766 52.5586 7.90234 52.71 7.47754L54.165 3.60059C54.2041 3.49805 54.2285 3.38086 54.2285 3.26855C54.2285 2.95605 53.9795 2.72168 53.6377 2.72168C53.3545 2.72168 53.1592 2.87305 53.0664 3.19531L51.8848 6.87207H51.8604L50.6787 3.20508C50.5859 2.87793 50.3906 2.72168 50.1025 2.72168C49.751 2.72168 49.4922 2.94141 49.4922 3.27344C49.4922 3.39062 49.5215 3.5127 49.5605 3.62012L51.0156 7.47754C51.1768 7.91699 51.4209 8.09766 51.8701 8.09766ZM57.5703 8.10254C58.5566 8.10254 59.3281 7.7168 59.6699 7.05762C59.7236 6.9502 59.7529 6.84277 59.7529 6.75C59.7529 6.45703 59.5381 6.28125 59.2646 6.28125C59.0938 6.28125 58.9814 6.33496 58.8545 6.47656C58.4639 6.97461 58.1074 7.16504 57.5605 7.16504C56.7695 7.16504 56.2666 6.6084 56.2666 5.74414V5.70508H59.3184C59.6797 5.70508 59.8848 5.49023 59.8848 5.12891C59.8848 3.72266 58.918 2.7168 57.502 2.7168C56.0078 2.7168 55.0557 3.78125 55.0557 5.43164C55.0557 7.11133 55.9883 8.10254 57.5703 8.10254ZM56.2764 4.9043C56.3252 4.16211 56.8232 3.65918 57.5068 3.65918C58.1904 3.65918 58.6689 4.15234 58.6934 4.9043H56.2764ZM61.7764 8.09766C62.1426 8.09766 62.3867 7.8584 62.3867 7.45801V4.96777C62.3867 4.33789 62.6504 3.90332 63.3438 3.89844C63.583 3.89355 63.7637 3.83984 63.8809 3.7373C64.0029 3.63965 64.0615 3.49805 64.0615 3.30762C64.0615 3.10742 64.0029 2.96094 63.8906 2.86816C63.7979 2.78516 63.6514 2.73633 63.4609 2.73633C62.9434 2.73633 62.4941 3.12695 62.3525 3.73242H62.3281V3.33691C62.3281 2.95605 62.0889 2.72168 61.752 2.72168C61.4053 2.72168 61.1709 2.95605 61.1709 3.33691V7.45801C61.1709 7.8584 61.4102 8.09766 61.7764 8.09766ZM65.8506 9.92383C66.8857 9.92383 67.4229 9.47461 67.8916 8.18555L69.5957 3.625C69.6396 3.50781 69.6641 3.37109 69.6641 3.27344C69.6641 2.95117 69.4199 2.72168 69.0732 2.72168C68.7656 2.72168 68.5898 2.86328 68.4873 3.19531L67.252 6.96484H67.2324L65.9971 3.2002C65.8945 2.8584 65.7236 2.72168 65.416 2.72168C65.0596 2.72168 64.791 2.95605 64.791 3.28809C64.791 3.38574 64.8154 3.5127 64.8594 3.63477L66.5537 8.09277L66.4658 8.34668C66.2852 8.80078 66.002 8.94238 65.7285 8.94238C65.6162 8.94238 65.5674 8.9375 65.4648 8.9375C65.1816 8.9375 65.0059 9.09863 65.0059 9.34766C65.0059 9.71875 65.3037 9.92383 65.8506 9.92383ZM72.9766 8.10254C74.4951 8.10254 75.4814 7.0918 75.4814 5.41211C75.4814 3.7373 74.4854 2.7168 72.9766 2.7168C71.4678 2.7168 70.4717 3.74219 70.4717 5.41211C70.4717 7.0918 71.458 8.10254 72.9766 8.10254ZM72.9766 7.14062C72.2051 7.14062 71.707 6.51562 71.707 5.41211C71.707 4.31348 72.21 3.68359 72.9766 3.68359C73.748 3.68359 74.2461 4.31348 74.2461 5.41211C74.2461 6.51562 73.748 7.14062 72.9766 7.14062ZM77.3682 8.09766C77.7246 8.09766 77.9785 7.86816 77.9785 7.45801V5.00195C77.9785 4.25977 78.4229 3.75684 79.1211 3.75684C79.8145 3.75684 80.1562 4.16699 80.1562 4.89941V7.45801C80.1562 7.86816 80.4102 8.09766 80.7666 8.09766C81.123 8.09766 81.3721 7.86816 81.3721 7.45801V4.65527C81.3721 3.45898 80.7227 2.72656 79.5801 2.72656C78.7842 2.72656 78.2471 3.08301 77.9688 3.69824H77.9443V3.33691C77.9443 2.96094 77.7002 2.72168 77.3438 2.72168C76.9824 2.72168 76.7627 2.96094 76.7627 3.33691V7.45801C76.7627 7.86816 77.0117 8.09766 77.3682 8.09766ZM85.1484 8.10254C86.1348 8.10254 86.9062 7.7168 87.248 7.05762C87.3018 6.9502 87.3311 6.84277 87.3311 6.75C87.3311 6.45703 87.1162 6.28125 86.8428 6.28125C86.6719 6.28125 86.5596 6.33496 86.4326 6.47656C86.042 6.97461 85.6855 7.16504 85.1387 7.16504C84.3477 7.16504 83.8447 6.6084 83.8447 5.74414V5.70508H86.8965C87.2578 5.70508 87.4629 5.49023 87.4629 5.12891C87.4629 3.72266 86.4961 2.7168 85.0801 2.7168C83.5859 2.7168 82.6338 3.78125 82.6338 5.43164C82.6338 7.11133 83.5664 8.10254 85.1484 8.10254ZM83.8545 4.9043C83.9033 4.16211 84.4014 3.65918 85.085 3.65918C85.7686 3.65918 86.2471 4.15234 86.2715 4.9043H83.8545Z" fill="#FA4A0C"/>
</svg>
